<?xml version="1.0" encoding="utf-8"?>
<!-- Generator: Adobe Illustrator 26.3.1, SVG Export Plug-In . SVG Version: 6.00 Build 0)  -->
<svg version="1.1" id="Ebene_1" xmlns="http://www.w3.org/2000/svg" xmlns:xlink="http://www.w3.org/1999/xlink" x="0px" y="0px"
	 viewBox="0 0 129 129" style="enable-background:new 0 0 129 129;" xml:space="preserve">
<g id="djGPYm_00000176042322177212955270000003179101796530550919_">
	<g>
		<path d="M57.7,43c6.8-6.8,8.3-6.8,13.9,0.2c1-5.7,4.6-8.9,9.5-10.7c4.8-1.9,10-2.4,14.7-0.1c2.8,1.3,5.8,3.4,7.6,5.8
			c7.1,9.6,13.9,19.6,20.7,29.6c6,8.8,5.5,21.6-1.3,30.9c-6.6,9.1-18.6,13.2-29.2,10.2c-12.3-3.5-19.8-13.7-20.3-27.1
			c0-1.1,0-2.1,0-3.2c-0.1-5.8-2.8-8.2-9.2-8.2c-5.5,0-8.4,3-8.2,8.5C56.2,89,53.3,97.8,45,104.2c-9.6,7.6-24,7.4-33.5-0.2
			C1.6,95.9-2.1,81.7,3.3,70.8C5,67.3,7.6,64.3,9.9,61c5.3-7.7,10.5-15.4,16-23.1c6.5-9.2,23.2-9.1,29.7,0.1
			C56.5,39.4,56.9,41.2,57.7,43z M28.8,102c11.1,0.2,20.4-8.8,20.5-19.7c0.1-11.5-8.6-20.5-20.1-20.8c-10.8-0.2-20.3,9-20.4,19.8
			C8.6,92.6,17.6,101.9,28.8,102z M101.2,100.7c10.7-0.1,19.4-8.8,19.4-19.4c0-10.4-8.8-19.3-19.2-19.4c-11.3-0.1-20,8.6-19.8,19.9
			C81.7,92.3,90.6,100.8,101.2,100.7z M64.6,61.6c3.3,0,6.1-1.9,5.8-3.8c-0.7-3-3.1-3.5-5.7-3.6c-2.7-0.1-5.3,0.5-6.1,3.5
			C58,59.6,61.3,61.6,64.6,61.6z"/>
		<path d="M95.8,27.6c-7.9-0.8-15,0.1-21.5,4.7c-0.2-1.9-0.2-3.7-0.5-5.5c-0.8-4.6,1.8-8.1,6.8-9.3c4.5-1.1,7.2,0.8,8.8,5.5
			c0.2,0.8,1,1.4,1.6,1.9C92.5,25.8,94.1,26.6,95.8,27.6z"/>
		<path d="M54.6,32c-6.5-4.3-13.6-5.1-21.9-3.5c1.5-1.1,2.2-1.9,3-2.2c2.5-1.2,4.4-2.5,5.3-5.6c0.9-3.3,5.1-4.3,9-2.8
			c3.9,1.4,6.3,4.8,5.7,8.2C55.1,27.8,54.9,29.6,54.6,32z"/>
	</g>
</g>
</svg>
