<?xml version="1.0" encoding="UTF-8"?>
<svg xmlns="http://www.w3.org/2000/svg" id="Layer_1" data-name="Layer 1" viewBox="0 0 495.75 263">
  <defs>
    <style>
      .cls-1 {
        fill: #fff;
        stroke: #fff;
        stroke-miterlimit: 10;
        stroke-width: 6px;
      }
    </style>
  </defs>
  <path class="cls-1" d="M463.06,69.63c-.3,0-.59-.13-.78-.39-.32-.43-.23-1.03,.2-1.35,9.04-6.74,18.07-13.46,27.11-20.17l1.62-1.21c.43-.32,1.04-.23,1.35,.2,.32,.43,.23,1.03-.2,1.35l-1.62,1.21c-9.03,6.71-18.07,13.42-27.1,20.17-.17,.13-.38,.19-.58,.19Z"></path>
  <path class="cls-1" d="M427.48,96.33c-.29,0-.58-.13-.77-.38-.32-.43-.24-1.03,.19-1.36,7.3-5.52,14.63-10.99,21.72-16.28l7.28-5.43c.43-.32,1.03-.23,1.35,.2,.32,.43,.23,1.03-.2,1.35l-7.28,5.43c-7.09,5.29-14.42,10.76-21.71,16.27-.18,.13-.38,.2-.58,.2Z"></path>
  <path class="cls-1" d="M382.11,131.46c-.29,0-.58-.13-.77-.38-.33-.42-.24-1.03,.18-1.36,11.81-9.04,23.97-18.3,37.18-28.32,.42-.32,1.03-.24,1.35,.19,.32,.42,.24,1.03-.19,1.35-13.21,10.02-25.37,19.28-37.17,28.31-.18,.13-.38,.2-.59,.2Z"></path>
  <path class="cls-1" d="M338.22,165.32c-.29,0-.57-.13-.76-.37-.33-.42-.25-1.03,.17-1.36,11.93-9.28,24.41-18.92,37.09-28.65,.43-.33,1.03-.24,1.36,.18,.32,.42,.24,1.03-.18,1.36-12.68,9.73-25.16,19.37-37.08,28.64-.18,.14-.39,.2-.59,.2Z"></path>
  <path class="cls-1" d="M291.7,201.91c-.28,0-.57-.13-.76-.37-.33-.42-.26-1.03,.16-1.36,12.76-10.16,26.19-20.74,39.91-31.44,.42-.33,1.03-.26,1.36,.17,.33,.42,.25,1.03-.17,1.36-13.72,10.7-27.14,21.28-39.89,31.43-.18,.14-.39,.21-.6,.21Z"></path>
  <path class="cls-1" d="M462.85,76.7c-.29,0-.58-.13-.77-.37-.33-.42-.25-1.03,.17-1.36,5.51-4.26,11.07-8.48,16.44-12.55,4.05-3.07,8.1-6.14,12.18-9.27,.42-.32,1.03-.24,1.36,.18,.32,.42,.24,1.03-.18,1.36-4.08,3.13-8.13,6.2-12.18,9.27-5.37,4.07-10.92,8.28-16.42,12.54-.18,.14-.38,.2-.59,.2Z"></path>
  <path class="cls-1" d="M427.39,104.5c-.29,0-.57-.13-.76-.37-.33-.42-.25-1.03,.17-1.36,9.75-7.62,19.51-15.21,29.26-22.77,.42-.33,1.03-.25,1.36,.17,.33,.42,.25,1.03-.17,1.36-9.75,7.56-19.51,15.15-29.26,22.76-.18,.14-.39,.2-.59,.2Z"></path>
  <path class="cls-1" d="M382.16,140c-.29,0-.57-.13-.76-.37-.33-.42-.26-1.03,.16-1.36,4.1-3.23,8.18-6.46,12.26-9.69,8.23-6.51,16.44-13,24.76-19.5,.42-.33,1.03-.25,1.36,.17,.33,.42,.25,1.03-.17,1.36-8.31,6.5-16.52,12.99-24.75,19.5-4.08,3.22-8.16,6.45-12.26,9.69-.18,.14-.39,.21-.6,.21Z"></path>
  <path class="cls-1" d="M338.24,174.76c-.28,0-.57-.13-.76-.37-.33-.42-.26-1.03,.16-1.36,12.24-9.72,24.54-19.46,36.89-29.21,.42-.33,1.03-.26,1.36,.16,.33,.42,.26,1.03-.16,1.36-12.35,9.75-24.65,19.49-36.88,29.21-.18,.14-.39,.21-.6,.21Z"></path>
  <path class="cls-1" d="M291.77,211.75c-.28,0-.57-.13-.76-.36-.33-.42-.26-1.03,.15-1.36,4.82-3.84,9.63-7.69,14.46-11.55,8.36-6.68,16.75-13.39,25.21-20.12,.42-.33,1.03-.26,1.36,.16,.33,.42,.26,1.03-.16,1.36-8.46,6.72-16.85,13.43-25.21,20.11-4.83,3.86-9.65,7.71-14.46,11.55-.18,.14-.39,.21-.6,.21Z"></path>
  <path class="cls-1" d="M3.97,102.06c-.38,0-.74-.23-.89-.6-.2-.49,.03-1.06,.53-1.26l9.96-4.11c6.14-2.53,12.13-4.98,18.13-7.42,6.07-2.48,12.15-4.96,18.36-7.52,.49-.2,1.06,.03,1.26,.53,.2,.49-.03,1.06-.53,1.26-6.22,2.56-12.29,5.04-18.37,7.52-5.99,2.45-11.99,4.89-18.12,7.42l-9.96,4.11c-.12,.05-.25,.07-.37,.07Z"></path>
  <path class="cls-1" d="M61.47,78.36c-.38,0-.74-.23-.89-.6-.2-.49,.03-1.06,.53-1.26,8.52-3.51,16.88-6.96,25.24-10.41l23.67-9.77c.49-.2,1.06,.03,1.26,.53,.2,.49-.03,1.06-.53,1.26l-23.67,9.76c-8.36,3.45-16.71,6.9-25.24,10.41-.12,.05-.25,.07-.37,.07Z"></path>
  <path class="cls-1" d="M121.62,53.52c-.38,0-.74-.23-.89-.6-.2-.49,.03-1.06,.53-1.26,6-2.47,11.94-4.91,17.88-7.34,5.86-2.4,11.71-4.8,17.63-7.24,.49-.2,1.06,.03,1.26,.53,.2,.49-.03,1.06-.53,1.26-5.92,2.44-11.77,4.84-17.63,7.24-5.94,2.43-11.88,4.87-17.88,7.34-.12,.05-.25,.07-.37,.07Z"></path>
  <path class="cls-1" d="M169.11,34c-.38,0-.74-.23-.89-.6-.2-.49,.03-1.06,.53-1.26,4.96-2.04,10.37-4.24,15.79-6.44,5.36-2.17,10.71-4.35,15.61-6.36,.49-.2,1.06,.03,1.26,.53,.2,.49-.03,1.06-.53,1.26-4.9,2.02-10.26,4.19-15.62,6.37-5.42,2.2-10.83,4.39-15.78,6.44-.12,.05-.25,.07-.37,.07Z"></path>
  <path class="cls-1" d="M209.52,17.35c-.38,0-.74-.23-.89-.6-.2-.49,.03-1.06,.53-1.26l29.97-12.35c.49-.2,1.06,.03,1.26,.53,.2,.49-.03,1.06-.53,1.26l-29.97,12.35c-.12,.05-.25,.07-.37,.07Z"></path>
  <path class="cls-1" d="M291.61,202.17c-.09,0-.18-.01-.27-.04-11.49-3.39-23-7.5-34.13-11.48-6.78-2.42-13.79-4.93-20.69-7.23-20.49-6.84-41.35-13.87-63.75-21.51-47.81-16.32-96.13-33.7-142.86-50.52-8.75-3.15-17.5-6.3-26.25-9.44-.5-.18-.76-.74-.58-1.24,.18-.5,.73-.76,1.24-.58,8.75,3.14,17.5,6.29,26.25,9.44,46.72,16.81,95.04,34.2,142.83,50.51,22.4,7.64,43.25,14.67,63.74,21.51,6.92,2.31,13.94,4.82,20.73,7.24,11.11,3.97,22.59,8.07,34.03,11.45,.51,.15,.81,.69,.65,1.2-.12,.42-.51,.69-.93,.69Z"></path>
  <path class="cls-1" d="M291.76,211.47c-.09,0-.18-.01-.27-.04-11.31-3.34-22.75-7.46-33.81-11.43-6.95-2.5-14.14-5.08-21.16-7.43-20.49-6.84-41.35-13.87-63.75-21.51-47.89-16.34-96.29-33.76-143.1-50.6-8.67-3.12-17.34-6.24-26.01-9.35-.5-.18-.76-.74-.58-1.24,.18-.5,.73-.76,1.24-.58,8.67,3.11,17.34,6.23,26.01,9.36,46.8,16.84,95.19,34.25,143.07,50.59,22.4,7.64,43.25,14.67,63.74,21.51,7.05,2.35,14.24,4.94,21.21,7.44,11.03,3.97,22.44,8.07,33.7,11.4,.51,.15,.81,.69,.65,1.2-.12,.42-.51,.69-.93,.69Z"></path>
  <path class="cls-1" d="M491.67,48.1c-.06,0-.12,0-.18-.02-23.27-4.44-48.83-8.98-80.46-14.3L239.3,4.92c-.53-.09-.88-.59-.79-1.11,.09-.53,.6-.88,1.11-.79l171.73,28.86c31.64,5.32,57.22,9.86,80.5,14.31,.52,.1,.87,.61,.77,1.13-.09,.46-.49,.79-.95,.79Z"></path>
  <path class="cls-1" d="M4.51,153.11c-.53,0-.96-.42-.97-.95-.07-5.93-.14-13.33-.22-21.05-.1-10.36-.21-21.28-.32-30,0-.53,.42-.97,.95-.98h0c.53,0,.96,.42,.97,.95,.12,8.71,.22,19.64,.32,30,.08,7.72,.15,15.12,.22,21.05,0,.53-.42,.97-.95,.98h-.01Z"></path>
  <path class="cls-1" d="M291.89,259.75c-.53,0-.97-.43-.97-.97,0-8.51-.05-17.06-.1-25.1-.07-13.13-.13-24.46-.03-32.5,0-.53,.44-.95,.97-.95h.01c.53,0,.96,.45,.95,.98-.1,8.02-.04,19.35,.03,32.46,.04,8.04,.09,16.59,.1,25.1,0,.53-.43,.97-.97,.97h0Z"></path>
  <path class="cls-1" d="M291.82,250.16c-.27,0-.54-.12-.74-.34-.35-.41-.3-1.02,.11-1.36,5-4.25,9.69-8.37,15.13-13.14,3.72-3.26,7.81-6.86,12.63-11.04,.4-.35,1.01-.31,1.36,.1s.31,1.01-.1,1.36c-4.82,4.19-8.9,7.77-12.62,11.04-5.44,4.78-10.14,8.9-15.15,13.16-.18,.16-.4,.23-.63,.23Z"></path>
  <path class="cls-1" d="M387.9,166.51c-.27,0-.54-.11-.73-.33-.35-.4-.31-1.01,.09-1.36,7.87-6.91,15.74-13.83,23.47-20.63,.4-.35,1.01-.31,1.36,.09,.35,.4,.31,1.01-.09,1.36-7.73,6.8-15.6,13.72-23.47,20.63-.18,.16-.41,.24-.64,.24Z"></path>
  <path class="cls-1" d="M473.43,91.11c-.27,0-.54-.11-.73-.33-.35-.4-.31-1.01,.09-1.36,6.11-5.35,12.02-10.48,17.57-15.23,.41-.35,1.01-.3,1.36,.11,.35,.4,.3,1.02-.11,1.36-5.54,4.75-11.45,9.87-17.56,15.22-.18,.16-.41,.24-.64,.24Z"></path>
  <path class="cls-1" d="M291.78,260c-.1,0-.2-.01-.29-.05-11.41-3.63-23.67-8.3-35.53-12.82-7.46-2.84-14.5-5.53-21.37-7.98-20.35-7.27-41.06-14.74-63.29-22.84-45.85-16.72-91.87-34.39-136.36-51.47-10.24-3.93-20.5-7.87-30.77-11.8-.5-.19-.75-.75-.56-1.25,.19-.5,.75-.75,1.25-.56,10.28,3.94,20.53,7.87,30.78,11.8,44.49,17.08,90.49,34.74,136.33,51.46,22.23,8.1,42.92,15.57,63.28,22.83,6.88,2.46,13.94,5.15,21.41,7.99,11.65,4.44,23.7,9.03,34.91,12.62L490.01,81.28l.65-33.98c0-.53,.43-.91,.98-.95,.53,.01,.96,.45,.95,.98l-.66,34.41c0,.27-.12,.52-.32,.7l-199.19,177.31c-.18,.16-.41,.25-.64,.25Z"></path>
  <path class="cls-1" d="M473.27,91.02s-.02,0-.03,0c-.53-.02-.95-.46-.94-1,.12-3.88,.26-7.67,.4-11.46,.14-3.74,.28-7.47,.39-11.3,.01-.52,.45-.94,.97-.94,0,0,.02,0,.03,0,.53,.02,.95,.46,.94,1-.12,3.83-.25,7.57-.39,11.31-.14,3.79-.28,7.57-.4,11.45-.01,.52-.45,.94-.97,.94Z"></path>
  <path class="cls-1" d="M387.91,166.19s-.02,0-.03,0c-.53-.02-.95-.46-.93-1l.99-31.45c.02-.53,.41-1,1-.93,.53,.02,.95,.46,.93,1l-.99,31.45c-.02,.52-.45,.94-.97,.94Z"></path>
  <path class="cls-1" d="M411.38,145.9c-.13,0-.27-.03-.4-.09-.35-.16-.57-.5-.57-.88l.11-29.04c0-.53,.43-.96,.97-.96h0c.53,0,.96,.44,.96,.97l-.1,26.89,58.88-51.99c-3.1-.45-6.55-.91-9.9-1.35-3.93-.52-8-1.06-11.45-1.58-.53-.08-.89-.57-.81-1.1,.08-.53,.57-.89,1.1-.81,3.44,.52,7.5,1.05,11.42,1.58,4.13,.55,8.4,1.12,11.99,1.66,.37,.06,.68,.32,.78,.68,.11,.36,0,.75-.29,1l-62.05,54.79c-.18,.16-.41,.24-.64,.24Z"></path>
  <path class="cls-1" d="M33.75,155.16c-.11,0-.23-.02-.34-.06-10.28-3.84-20.1-7.52-29.34-10.99-.5-.19-.75-.74-.57-1.24,.19-.5,.75-.75,1.24-.57,9.24,3.47,19.06,7.15,29.34,10.99,.5,.19,.75,.74,.57,1.24-.14,.39-.51,.63-.91,.63Z"></path>
  <path class="cls-1" d="M154.31,199.93c-.11,0-.22-.02-.33-.06-5.41-1.99-10.89-3.9-16.19-5.75-5.41-1.88-11-3.83-16.47-5.85-.5-.18-.76-.74-.57-1.24,.18-.5,.74-.76,1.24-.57,5.45,2.02,11.04,3.96,16.44,5.84,5.31,1.85,10.8,3.76,16.23,5.76,.5,.18,.76,.74,.57,1.24-.14,.39-.51,.63-.91,.63Z"></path>
  <path class="cls-1" d="M291.86,250.04c-.11,0-.22-.02-.33-.06-12.25-4.42-24.84-8.98-37.28-13.5-.5-.18-.76-.74-.58-1.24,.18-.5,.73-.76,1.24-.58,12.44,4.52,25.03,9.08,37.27,13.5,.5,.18,.76,.74,.58,1.24-.14,.39-.51,.64-.91,.64Z"></path>
  <path class="cls-1" d="M33.82,155.02c-.53,0-.96-.43-.97-.96l-.35-33.24c0-.53,.42-.97,.96-.98h0c.53,0,.96,.43,.97,.96l.35,33.24c0,.53-.42,.97-.96,.98h-.01Z"></path>
  <path class="cls-1" d="M154.86,199.56h0c-.54,0-.97-.44-.97-.97l.09-34.47c0-.53,.43-.96,.97-.96h0c.53,0,.97,.44,.96,.97l-.09,34.47c0,.53-.43,.96-.97,.96Z"></path>
  <path class="cls-1" d="M254.45,208.95c-.1,0-.21-.02-.31-.05l-72.55-24.47c-.51-.17-.78-.72-.61-1.22,.17-.51,.72-.78,1.22-.61l72.55,24.47c.51,.17,.78,.72,.61,1.22-.14,.4-.51,.66-.92,.66Z"></path>
  <path class="cls-1" d="M319.59,225.96c-.14,0-.27-.03-.4-.09-.35-.16-.57-.51-.57-.89,.04-5.84,.15-11.21,.25-16.4,.14-6.87,.27-13.35,.21-19.95,0-.53,.42-.97,.96-.98,.58-.04,.97,.42,.98,.96,.05,6.62-.08,13.12-.22,20-.09,4.54-.18,9.22-.23,14.22l65.38-57.19c-8.23-2.42-16.58-4.75-24.84-6.94-.52-.14-.82-.67-.69-1.18,.13-.51,.66-.82,1.18-.69,8.84,2.34,17.78,4.85,26.57,7.45,.34,.1,.59,.37,.67,.72,.08,.34-.04,.7-.31,.93l-68.32,59.77c-.18,.16-.41,.24-.64,.24Z"></path>
  <path class="cls-1" d="M375.12,145.49h0c-.53,0-.96-.44-.96-.98l.15-8.88c0-.53,.44-.95,.97-.95h.02c.53,0,.96,.45,.95,.98l-.15,8.87c0,.53-.44,.96-.97,.96Z"></path>
  <path class="cls-1" d="M382.09,139.99h-.02c-.53,0-.96-.45-.95-.98l.16-8.96c0-.53,.48-1.02,.98-.95,.53,0,.96,.45,.95,.98l-.16,8.96c0,.53-.44,.95-.97,.95Z"></path>
  <path class="cls-1" d="M419.18,110.81h-.02c-.53,0-.96-.45-.95-.98l.14-8.07c0-.53,.44-.95,.97-.95h.02c.53,0,.96,.45,.95,.98l-.14,8.07c0,.53-.44,.95-.97,.95Z"></path>
  <path class="cls-1" d="M427.27,104.49h-.02c-.53,0-.96-.45-.95-.98l.14-8.17c0-.53,.48-.98,.98-.95,.53,0,.96,.45,.95,.98l-.14,8.17c0,.53-.44,.95-.97,.95Z"></path>
  <path class="cls-1" d="M456.61,81.68h-.02c-.53,0-.96-.45-.95-.98l.13-7.27c0-.53,.44-.95,.97-.95h.02c.53,0,.96,.45,.95,.98l-.13,7.27c0,.53-.44,.95-.97,.95Z"></path>
  <path class="cls-1" d="M462.85,76.7h-.01c-.54,0-.96-.45-.96-.98l.12-7.07c0-.53,.39-.99,.98-.95,.53,0,.96,.45,.95,.98l-.12,7.07c0,.53-.44,.95-.97,.95Z"></path>
  <path class="cls-1" d="M331.44,180.08h-.02c-.53,0-.96-.45-.95-.98l.17-9.6c0-.54,.49-1,.98-.95,.53,0,.96,.45,.95,.98l-.17,9.6c0,.53-.44,.95-.97,.95Z"></path>
  <path class="cls-1" d="M338.11,174.76h-.02c-.53,0-.96-.45-.95-.98l.17-9.97c0-.53,.44-.95,.97-.95h.02c.53,0,.96,.45,.95,.98l-.17,9.97c0,.53-.44,.95-.97,.95Z"></path>
  <path class="cls-1" d="M61.46,86.18h-.01c-.54,0-.97-.45-.96-.98l.13-7.85c0-.53,.41-.93,.98-.95,.53,0,.96,.45,.95,.98l-.13,7.85c0,.53-.44,.95-.97,.95Z"></path>
  <path class="cls-1" d="M121.49,61.37h-.02c-.53,0-.96-.45-.95-.98l.13-7.53c0-.54,.44-1.01,.98-.95,.53,0,.96,.45,.95,.98l-.13,7.53c0,.53-.44,.95-.97,.95Z"></path>
  <path class="cls-1" d="M169,41.7h-.02c-.53,0-.96-.45-.95-.98l.13-7.28c0-.53,.49-1,.98-.95,.53,0,.96,.45,.95,.98l-.13,7.28c0,.53-.44,.95-.97,.95Z"></path>
  <path class="cls-1" d="M209.58,22.95h-.02c-.53,0-.96-.45-.95-.98l.09-5.31c0-.53,.44-.95,.97-.95h.01c.54,0,.97,.45,.96,.98l-.09,5.31c0,.53-.44,.95-.97,.95Z"></path>
  <path class="cls-1" d="M361.26,158.74h-.01c-.54,0-.96-.45-.96-.98l.04-2.37c0-.53,.42-.98,.98-.95,.53,0,.96,.45,.95,.98l-.04,2.37c0,.53-.44,.95-.97,.95Z"></path>
  <path class="cls-1" d="M59.42,142.45h-.01c-.53,0-.96-.45-.95-.98l.17-11.01c0-.53,.44-.95,.97-.95h.01c.53,0,.96,.45,.95,.98l-.17,11.01c0,.53-.44,.95-.97,.95Z"></path>
  <path class="cls-1" d="M181.9,184.48s-.06,0-.08,0c-.53-.05-.93-.52-.88-1.05l.87-10.07c.05-.53,.52-.93,1.05-.88,.53,.05,.93,.51,.88,1.05l-.87,10.07c-.04,.5-.47,.88-.96,.88Z"></path>
  <path class="cls-1" d="M254.63,236.47c-.11,0-.22-.02-.33-.06l-100.3-36.18c-.35-.12-.59-.43-.63-.8-.04-.37,.13-.72,.44-.92,5.08-3.27,10.13-6.01,15.01-8.66,4.1-2.22,8.34-4.52,12.61-7.15,.46-.28,1.05-.13,1.33,.32,.28,.46,.14,1.05-.32,1.33-4.32,2.65-8.58,4.96-12.7,7.2-4.31,2.34-8.76,4.75-13.22,7.54l97.14,35.05-.17-36.2c0-.53,.43-.97,.96-.97h0c.53,0,.96,.43,.97,.96l.18,37.58c0,.32-.15,.61-.41,.79-.16,.12-.36,.18-.56,.18Z"></path>
  <path class="cls-1" d="M121.65,188.33c-.12,0-.23-.02-.34-.06l-87.77-33.18c-.36-.13-.6-.47-.62-.86-.02-.38,.19-.74,.54-.91,8.42-4.16,17.03-8.22,25.59-12.07,.22-.1,.47-.11,.71-.03l60.94,20.65v-9.57c0-.53,.43-.97,.97-.97h0c.53,0,.97,.43,.97,.97v10.89s0,.03,0,.04v24.14c0,.32-.16,.62-.42,.8-.16,.11-.35,.17-.55,.17Zm-85.34-34.27l84.38,31.9v-22.07s-61.2-20.74-61.2-20.74c-7.74,3.49-15.53,7.15-23.18,10.9Z"></path>
  <path class="cls-1" d="M332,170.1c-.09,0-.19-.01-.28-.04-46.63-14.39-93.8-28.98-140.98-43.58-47.17-14.6-94.35-29.19-140.98-43.58-.51-.16-.8-.7-.64-1.21,.16-.51,.7-.8,1.21-.64,46.63,14.39,93.8,28.98,140.98,43.58,47.17,14.6,94.35,29.19,140.98,43.58,.51,.16,.8,.7,.64,1.21-.13,.42-.51,.68-.92,.68Z"></path>
  <path class="cls-1" d="M338.73,164.59c-.09,0-.19-.01-.28-.04L60.95,78.9c-.51-.16-.8-.7-.64-1.21,.16-.51,.7-.8,1.21-.64l277.49,85.64c.51,.16,.8,.7,.64,1.21-.13,.42-.51,.68-.92,.68Z"></path>
  <path class="cls-1" d="M338.31,174.86c-.09,0-.19-.01-.29-.04l-6.59-2.04c-.51-.16-.8-.7-.64-1.21,.16-.51,.7-.8,1.21-.64l6.6,2.04c.51,.16,.8,.7,.64,1.21-.13,.41-.51,.68-.92,.68Z"></path>
  <path class="cls-1" d="M375.34,136.4c-.09,0-.18-.01-.27-.04L110.1,58.15c-.51-.15-.81-.69-.65-1.2,.15-.51,.68-.81,1.2-.65l264.96,78.22c.51,.15,.81,.69,.65,1.2-.12,.42-.51,.69-.93,.69Z"></path>
  <path class="cls-1" d="M382.3,131.04c-.09,0-.18-.01-.27-.04L120.98,53.94c-.51-.15-.81-.69-.65-1.2,.15-.51,.68-.81,1.2-.65l261.05,77.06c.51,.15,.81,.69,.65,1.2-.12,.42-.51,.69-.93,.69Z"></path>
  <path class="cls-1" d="M382.09,140.27c-.09,0-.18-.01-.27-.04l-6.83-2.02c-.51-.15-.8-.69-.65-1.2s.69-.8,1.2-.65l6.83,2.02c.51,.15,.81,.69,.65,1.2-.12,.42-.51,.69-.93,.69Z"></path>
  <path class="cls-1" d="M419.53,102.74c-.08,0-.15,0-.23-.03-41.9-10.14-84.31-20.51-125.33-30.53-40.91-10-83.21-20.33-125-30.45l-12.04-2.91c-.52-.13-.84-.65-.71-1.17,.13-.52,.65-.83,1.17-.71l12.05,2.91c41.79,10.12,84.09,20.45,125,30.45,41.01,10.02,83.42,20.39,125.32,30.53,.52,.13,.84,.65,.71,1.17-.11,.44-.5,.74-.94,.74Z"></path>
  <path class="cls-1" d="M427.48,96.33c-.08,0-.15,0-.23-.03-42.3-10.23-85.43-20.51-127.14-30.46-43.04-10.26-87.55-20.88-131.19-31.44-.52-.13-.84-.65-.71-1.17,.13-.52,.64-.83,1.17-.71,43.63,10.56,88.14,21.18,131.18,31.44,41.71,9.95,84.85,20.23,127.15,30.46,.52,.13,.84,.65,.71,1.17-.11,.44-.5,.74-.94,.74Z"></path>
  <path class="cls-1" d="M427.27,104.3c-.08,0-.15,0-.23-.03l-8.03-1.94c-.52-.13-.84-.65-.71-1.17,.13-.52,.65-.83,1.17-.71l8.03,1.94c.52,.13,.84,.65,.71,1.17-.11,.44-.5,.74-.94,.74Z"></path>
  <path class="cls-1" d="M457.06,74.56c-.07,0-.13,0-.2-.02L199.83,21.17c-.52-.11-.86-.62-.75-1.14s.63-.85,1.14-.75l257.04,53.38c.52,.11,.86,.62,.75,1.14-.09,.46-.5,.77-.95,.77Z"></path>
  <path class="cls-1" d="M463.09,69.49c-.06,0-.13,0-.2-.02-40.78-8.44-82.26-16.85-122.37-24.99-43.19-8.76-87.84-17.81-131.74-26.93-.52-.11-.86-.62-.75-1.14,.11-.52,.64-.86,1.14-.75,43.9,9.12,88.55,18.17,131.73,26.93,40.12,8.14,81.6,16.55,122.38,24.99,.52,.11,.86,.62,.75,1.14-.09,.46-.5,.77-.95,.77Z"></path>
  <path class="cls-1" d="M462.88,76.83c-.06,0-.13,0-.2-.02l-6.08-1.26c-.52-.11-.86-.62-.75-1.14,.11-.52,.62-.86,1.14-.75l6.08,1.26c.52,.11,.86,.62,.75,1.14-.09,.46-.5,.77-.95,.77Z"></path>
</svg>
